<?xml version="1.0" encoding="UTF-8" standalone="no"?>
<!-- Created with Inkscape (http://www.inkscape.org/) -->

<svg
   width="18.369629"
   height="18.369537"
   viewBox="0 0 4.8602976 4.8602734"
   version="1.1"
   id="svg1"
   xml:space="preserve"
   xmlns="http://www.w3.org/2000/svg"
   xmlns:svg="http://www.w3.org/2000/svg"><defs
     id="defs1" /><g
     id="layer1"
     transform="translate(-418.25781,-51.914398)"><g
       id="g4"><g
         id="g3"
         transform="translate(0,4.867522)"><path
           id="path1-2"
           style="fill:#ffffff;fill-opacity:1;stroke:none;stroke-width:0.0755718;stroke-opacity:1"
           d="m 420.19727,47.046875 c -1.07027,0 -1.93946,0.869177 -1.93946,1.939453 0,1.070278 0.8694,1.9375 1.93946,1.9375 0.44501,0 0.83484,-0.164818 1.16015,-0.410156 l 1.3457,1.345703 a 0.16286094,0.16286094 0 0 0 0.23047,0 l 0.13672,-0.136719 a 0.16286094,0.16286094 0 0 0 0,-0.230469 l -1.3457,-1.345703 c 0.24593,-0.327022 0.41016,-0.721119 0.41016,-1.160156 0,-1.070058 -0.86723,-1.939453 -1.9375,-1.939453 z m 0.006,0.521484 c 0.78122,0 1.41797,0.629384 1.41797,1.417969 0,0.788584 -0.63627,1.422834 -1.41601,1.416016 a 0.16286094,0.16286094 0 0 0 -0.002,0 c -0.78143,0 -1.41601,-0.627192 -1.41601,-1.416016 0,-0.781449 0.62744,-1.417969 1.41601,-1.417969 z" /></g></g></g></svg>
