<?xml version="1.0" encoding="UTF-8" standalone="no"?>
<!-- Created with Inkscape (http://www.inkscape.org/) -->

<svg
   width="57.058887"
   height="77.264946"
   viewBox="0 0 15.096831 20.443017"
   version="1.1"
   id="svg1"
   xml:space="preserve"
   xmlns="http://www.w3.org/2000/svg"
   xmlns:svg="http://www.w3.org/2000/svg"><defs
     id="defs1" /><g
     id="layer2"
     transform="translate(32.374542,-19.913963)"><g
       id="g1"
       transform="translate(-5.2916667,-5.2916667)"><path
         style="fill:#3584e4;fill-opacity:1;stroke-width:0.264583"
         id="rect1"
         width="26.458334"
         height="26.458334"
         x="9.8169518"
         y="10.429085"
         d="m 15.816952,10.429085 h 14.458334 a 6,6 45 0 1 6,6 v 14.458334 a 6,6 135 0 1 -6,6 H 15.816952 a 6,6 45 0 1 -6.0000002,-6 V 16.429085 a 6,6 135 0 1 6.0000002,-6 z"
         transform="translate(0.76638158,0.15424856)" /><g
         id="g11"
         transform="translate(-43.594378,12.16348)"><path
           style="fill:#89b7ef;fill-opacity:1;stroke:none;stroke-width:0.445536;stroke-opacity:1"
           id="rect9"
           width="13.23115"
           height="8.9586411"
           x="16.511501"
           y="13.04215"
           d="m 16.511501,13.04215 h 11.73115 a 1.5,1.5 45 0 1 1.5,1.5 v 7.458641 h -13.23115 z" /><path
           id="rect7"
           transform="translate(5.2916667,5.2916667)"
           d="m 11.219835,8.5194054 h 13.096829 c 1.104569,0 2,0.8954303 2,1.9999996 v 15.674097 c 0,1.104569 -0.895431,2 -2,2 l -10.660917,-10e-7 -2.435912,-0.768921 z"
           style="fill:#99c1f1;fill-opacity:1;stroke:none;stroke-width:0.264583;stroke-opacity:1" /><path
           d="m 27.378748,18.781538 c -0.952435,0.276678 -1.114268,0.341933 -1.512222,0.608171 l -0.236119,0.159221 0.156529,0.02088 c 0.358158,0.04437 0.67652,0.107017 0.909986,0.180102 0.137957,0.04176 0.244078,0.08353 0.236118,0.08875 -0.0053,0.0052 -0.08755,-0.0052 -0.180405,-0.0261 -0.546523,-0.122678 -1.443243,-0.167052 -2.053438,-0.09658 -0.30775,0.03393 -0.326321,0.03393 -0.424484,-0.01566 -0.599582,-0.29756 -1.865073,-0.60034 -2.984648,-0.712578 -0.153875,-0.01566 -0.313056,-0.03133 -0.352852,-0.03654 l -0.07428,-0.0079 0.01591,0.133119 c 0.0398,0.318441 0.159181,0.944884 0.238772,1.268546 0.172446,0.681257 0.371423,1.164138 0.586317,1.404276 l 0.119386,0.135729 -0.06633,0.266237 c -0.09551,0.386306 -0.132651,0.756952 -0.11408,1.182411 0.03979,0.944884 0.321015,1.686174 0.848967,2.249972 l 0.143263,0.151391 -0.204283,0.112237 c -0.859578,0.472441 -1.188553,1.117156 -0.941822,1.837564 0.217548,0.631663 0.67652,0.908342 1.509569,0.908342 0.668561,0 1.188553,-0.114847 2.772406,-0.605561 0.902027,-0.279289 1.231002,-0.360205 1.554671,-0.378476 0.469584,-0.02349 0.718968,0.05481 1.307938,0.420239 0.180405,0.109628 0.37673,0.219254 0.437749,0.240135 0.249384,0.08875 0.631419,0.01566 0.772029,-0.146169 0.275914,-0.326272 0.07163,-0.952714 -0.482849,-1.464309 -0.100816,-0.09658 -0.241426,-0.211424 -0.310404,-0.258408 -0.206936,-0.138339 -0.549175,-0.30017 -0.779988,-0.365424 l -0.214893,-0.06264 v -1.573937 -1.573936 h -1.565282 -1.565281 v 0.626442 0.626442 h 0.67652 0.67652 v 0.649935 0.647323 l -0.08224,0.01827 c -0.127345,0.02349 -0.5704,0.01827 -0.819783,-0.01044 -0.976312,-0.117457 -1.586506,-0.613391 -1.825278,-1.48258 -0.06367,-0.232306 -0.06898,-0.29495 -0.06898,-0.762172 0,-0.44112 0.008,-0.537696 0.05836,-0.717799 0.07428,-0.271458 0.265302,-0.644713 0.419177,-0.816984 0.557135,-0.626443 1.536099,-0.843087 2.477921,-0.548138 0.389995,0.122678 0.7455,0.313221 1.217737,0.655155 0.132651,0.09658 0.188365,0.122678 0.270608,0.122678 h 0.103468 l -0.0053,-0.788274 -0.008,-0.788273 -0.193671,-0.08092 -0.19367,-0.07831 0.01591,-0.09136 c 0.05571,-0.29756 0.06633,-1.310309 0.01591,-1.302478 -0.008,0.0026 -0.135304,0.03654 -0.281221,0.07831 z m -5.088494,0.861358 c 0.382036,0.14878 0.671215,0.292339 0.73754,0.362815 0.03449,0.03654 0.01591,0.03393 -0.09286,-0.01827 -0.14061,-0.06526 -0.382035,-0.122678 -0.636725,-0.148779 l -0.145916,-0.01305 0.185712,0.09658 c 0.270607,0.140949 0.488155,0.370645 0.259996,0.274069 -0.116733,-0.0496 -0.594278,-0.07308 -0.777335,-0.04176 l -0.116734,0.02088 0.270609,0.08875 c 0.198976,0.06264 0.299791,0.112237 0.382035,0.182712 0.06102,0.05481 0.103467,0.109628 0.09286,0.125289 -0.01061,0.01305 -0.07428,0.03393 -0.143263,0.04176 -0.06898,0.0079 -0.161834,0.02872 -0.206935,0.04437 l -0.07959,0.03132 0.135304,0.0496 c 0.07428,0.02872 0.156528,0.07308 0.180406,0.09658 0.03979,0.04699 0.03184,0.06526 -0.132651,0.308001 -0.09816,0.14095 -0.183059,0.261018 -0.193672,0.266239 -0.01061,0.0026 -0.08755,-0.06264 -0.167139,-0.146171 -0.230812,-0.237525 -0.437749,-0.689086 -0.588971,-1.281596 -0.05571,-0.211424 -0.148569,-0.676036 -0.148569,-0.738681 0,-0.02349 0.764069,0.232306 1.1859,0.399358 z m 1.95793,7.177987 c -0.870191,0.407187 -1.061208,0.472442 -1.169983,0.401968 -0.193671,-0.122679 0.03715,-0.315833 0.525299,-0.441121 0.259996,-0.06526 0.803865,-0.154 1.029372,-0.167052 0.03715,-0.0026 -0.135304,0.08875 -0.384688,0.206205 z"
           id="path1"
           style="fill:#ffffff;fill-opacity:1;stroke:none;stroke-width:0.00263151" /><path
           id="rect8"
           style="fill:#6ba4eb;stroke-width:0.264583"
           d="m 16.511502,13.04215 2.435912,0.768921 v 19.674097 l -2.435912,-0.768921 z" /></g></g></g></svg>
